<?xml version="1.0" encoding="UTF-8" standalone="no"?>
<!-- Created with Inkscape (http://www.inkscape.org/) -->

<svg
   xmlns:dc="http://purl.org/dc/elements/1.1/"
   xmlns:cc="http://creativecommons.org/ns#"
   xmlns:rdf="http://www.w3.org/1999/02/22-rdf-syntax-ns#"
   xmlns:svg="http://www.w3.org/2000/svg"
   xmlns="http://www.w3.org/2000/svg"
   xmlns:sodipodi="http://sodipodi.sourceforge.net/DTD/sodipodi-0.dtd"
   xmlns:inkscape="http://www.inkscape.org/namespaces/inkscape"
   version="1.1"
   id="svg2"
   width="246.12888"
   height="58.75819"
   viewBox="0 0 246.12888 58.75819"
   sodipodi:docname="creative-commons.svg"
   inkscape:export-filename="/home/arthur/dev/labpirata.com/public/img/libreflix-350x250.png"
   inkscape:export-xdpi="96"
   inkscape:export-ydpi="96"
   inkscape:version="0.92.1 r15371">
  <metadata
     id="metadata8">
    <rdf:RDF>
      <cc:Work
         rdf:about="">
        <dc:format>image/svg+xml</dc:format>
        <dc:type
           rdf:resource="http://purl.org/dc/dcmitype/StillImage" />
        <dc:title></dc:title>
      </cc:Work>
    </rdf:RDF>
  </metadata>
  <defs
     id="defs6" />
  <sodipodi:namedview
     pagecolor="#ffffff"
     bordercolor="#666666"
     borderopacity="1"
     objecttolerance="10"
     gridtolerance="10"
     guidetolerance="10"
     inkscape:pageopacity="0"
     inkscape:pageshadow="2"
     inkscape:window-width="1366"
     inkscape:window-height="719"
     id="namedview4"
     showgrid="false"
     fit-margin-top="0"
     fit-margin-left="0"
     fit-margin-right="0"
     fit-margin-bottom="0"
     inkscape:zoom="1.5428571"
     inkscape:cx="81.434442"
     inkscape:cy="-59.294532"
     inkscape:window-x="0"
     inkscape:window-y="25"
     inkscape:window-maximized="1"
     inkscape:current-layer="svg2" />
  <path
     style="fill:#000000;stroke-width:0.39472547"
     d="m 62.886143,58.383209 c -3.31678,-0.781 -5.76411,-2.85463 -7.28194,-6.17 -0.83928,-1.83325 -1.04049,-2.87214 -1.05192,-5.43144 -0.018,-4.019549 0.56684,-5.969729 2.53784,-8.463239 2.45112,-3.1009 4.07988,-3.78005 9.06533,-3.78005 3.83898,0 4.29757,0.0847 6.21864,1.14916 2.05349,1.13778 4.3673,3.5934 3.862,4.0987 -0.14406,0.14407 -1.27217,0.79879 -2.50689,1.45494 l -2.24495,1.19299 -1.4191,-1.48086 c -1.19932,-1.25151 -1.67614,-1.48086 -3.07873,-1.48086 -3.79415,0 -5.36592,2.02474 -5.36228,6.907689 0.003,3.9005 0.91068,5.6894 3.39059,6.68166 2.29068,0.91655 4.0302,0.49255 5.58703,-1.36181 l 1.25385,-1.49349 2.28135,1.15162 c 1.25475,0.63339 2.28136,1.33515 2.28136,1.55946 0,0.22432 -0.85423,1.26207 -1.89828,2.30612 -3.06436,3.06436 -7.23156,4.19605 -11.6339,3.15941 z m 22.16929,-0.0882 c -2.67613,-0.75851 -5.39953,-2.89587 -6.75519,-5.30156 -1.40754,-2.49775 -1.89269,-7.02742 -1.10456,-10.312709 0.65457,-2.72856 2.89284,-5.68032 5.34088,-7.04337 1.83898,-1.02392 2.28331,-1.09889 6.51297,-1.09889 4.35178,0 4.62905,0.0508 6.71033,1.22837 4.298417,2.4321 6.510847,7.51799 5.594647,12.860839 -0.25716,1.49962 -0.81137,3.4005 -1.23158,4.22419 -0.954547,1.87107 -3.196377,3.8661 -5.478947,4.87579 -2.21814,0.98119 -7.10772,1.2705 -9.58855,0.56734 z m 7.14265,-5.7156 c 1.62249,-1.18768 2.37631,-3.12635 2.377,-6.11317 7.9e-4,-3.291899 -0.73259,-5.151519 -2.44267,-6.194129 -1.68641,-1.02817 -4.44815,-1.04722 -6.09659,-0.0421 -3.86943,2.35946 -3.08863,11.571559 1.09904,12.966839 1.69722,0.56549 3.79699,0.30941 5.06322,-0.61748 z m 91.250707,5.47285 c -2.81835,-1.04875 -5.30684,-3.15608 -6.437,-5.45107 -0.80077,-1.62611 -0.92521,-2.46329 -0.9247,-6.22095 7.9e-4,-4.791489 0.46947,-6.182899 2.96057,-8.786819 2.10324,-2.19848 4.10663,-2.98345 8.09115,-3.1703 6.17159,-0.28941 9.67779,1.40747 11.93207,5.77468 1.16902,2.26474 1.29124,2.82787 1.29124,5.949249 0,5.8066 -1.84403,9.21161 -6.12223,11.30473 -2.98475,1.46031 -7.76551,1.72633 -10.7911,0.60048 z m 7.68539,-5.35164 c 3.46485,-2.27025 3.3097,-10.797529 -0.22974,-12.627849 -1.49924,-0.77529 -4.07445,-0.76698 -5.59251,0.018 -2.62136,1.35555 -3.59571,6.936319 -1.82433,10.449079 1.5044,2.98331 4.9187,3.9481 7.64658,2.16072 z m 40.84968,5.68669 c -2.63018,-0.51657 -7.77116,-3.49966 -7.45858,-4.32788 0.0618,-0.16389 0.98427,-1.01541 2.04982,-1.89229 l 1.93737,-1.59432 1.61516,1.09759 c 2.12675,1.44523 3.87757,2.01225 6.21341,2.01225 2.09626,0 3.49363,-0.94173 3.49363,-2.35447 0,-1.0263 -0.93162,-1.47704 -4.62233,-2.23638 -4.39832,-0.90493 -7.03724,-1.98635 -8.18987,-3.356179 -0.83006,-0.98647 -1.0032,-1.60022 -1.0032,-3.55624 0,-1.30021 0.19895,-2.752 0.44209,-3.2262 0.88392,-1.72385 2.89668,-3.42456 4.80178,-4.05733 3.67947,-1.22213 11.0274,-0.17133 13.92393,1.9912 0.73412,0.54809 0.68072,0.65752 -1.28925,2.6422 -1.94684,1.96138 -2.09341,2.03575 -2.78267,1.41198 -1.01833,-0.92158 -3.86312,-1.86342 -5.62836,-1.86342 -1.89016,0 -3.35604,1.10336 -2.99156,2.25172 0.31929,1.00601 1.48124,1.49032 5.54351,2.31062 3.54235,0.7153 5.49516,1.59403 6.90946,3.109139 1.42725,1.52898 1.59119,5.33161 0.32393,7.51377 -2.11565,3.64307 -7.39519,5.28166 -13.28827,4.12424 z M 20.515731,57.858079 C 14.733428,56.535229 8.5769294,52.604609 5.1529234,48.049669 2.8419564,44.97541 2.0962354,43.50861 1.0909224,40.05986 -1.0761726,32.62559 0.01135836,24.90858 4.1219364,18.5521 6.0890594,15.51019 10.349818,11.45061 13.10565,9.99256 c 4.091865,-2.16492 7.180877,-2.8875 12.343911,-2.8875 7.430122,0 12.387322,1.75778 17.295482,6.13281 2.99715,2.67161 5.80212,6.8068 7.17218,10.57349 0.93755,2.57759 1.0308,3.36567 1.0358,8.75349 0.005,5.20314 -0.10727,6.24749 -0.92478,8.61523 -2.52978,7.326939 -8.96645,13.388029 -17.02973,16.036049 -3.331308,1.09402 -9.189791,1.3953 -12.482782,0.64195 z m 12.145832,-5.44745 c 3.08089,-1.13752 7.17344,-3.9468 9.20883,-6.32129 5.24076,-6.113849 6.34496,-15.396109 2.7123,-22.800539 C 38.041253,9.9554 19.999703,7.39013 10.164727,18.39502 4.1077084,25.17255 2.8836314,34.5529 7.0388864,42.34896 c 1.570172,2.94594 5.9858996,7.334229 8.9927346,8.936859 4.88735,2.60493 11.423732,3.04703 16.629942,1.12481 z M 15.827956,40.18159 C 11.047071,38.51495 9.4258524,31.77125 12.73941,27.33432 c 1.380886,-1.84904 2.845018,-2.46662 5.847747,-2.46662 2.837455,0 5.3758,0.97384 6.108924,2.34369 0.580578,1.08483 0.565269,1.11253 -1.07824,1.95098 l -1.486164,0.75819 -1.101564,-0.94753 c -1.135575,-0.97678 -1.785507,-1.11182 -3.343019,-0.6946 -2.369008,0.6346 -2.818165,6.03408 -0.679825,8.17242 1.023255,1.02326 3.216684,0.83257 4.43479,-0.38553 1.035276,-1.03528 1.04342,-1.03643 2.350411,-0.33257 0.721344,0.38847 1.311535,0.92637 1.311535,1.19535 0,0.26897 -0.616838,1.03063 -1.37075,1.69257 -2.131041,1.87108 -5.249344,2.48679 -7.905299,1.56092 z m 15.114577,0.085 c -3.168199,-0.95503 -5.025797,-3.76429 -5.040409,-7.62265 -0.01218,-3.2159 1.482537,-5.90261 4.017666,-7.22164 1.279263,-0.6656 5.931003,-0.73822 7.150613,-0.11162 1.05912,0.54413 3.03317,2.35385 3.03317,2.78067 0,0.17207 -0.70277,0.67138 -1.56171,1.10958 l -1.56171,0.79672 -0.98606,-0.98606 c -2.66719,-2.66719 -6.168907,0.1533 -5.5246,4.44983 0.51673,3.4458 3.45565,4.79358 5.72072,2.6235 1.04861,-1.00463 1.08296,-1.00958 2.38995,-0.34452 0.72933,0.37112 1.38465,0.72557 1.45627,0.78767 0.4608,0.39956 -1.60829,2.41973 -3.27162,3.19427 -2.02906,0.94486 -3.91003,1.12068 -5.82228,0.54425 z m 71.922387,6.113659 V 34.73585 h 3.55253 c 3.27249,0 3.55253,0.0614 3.55253,0.77835 0,0.74634 0.0755,0.73822 1.83506,-0.19737 1.39117,-0.73969 2.43524,-0.97571 4.31628,-0.97571 2.88294,0 4.29613,0.45102 5.74581,1.83375 0.73198,0.69817 1.12823,0.85486 1.33122,0.52641 0.71257,-1.15296 4.32777,-2.35243 7.09999,-2.35569 3.13937,-0.004 4.99632,0.73186 6.28756,2.49053 0.76761,1.04549 0.82503,1.7261 0.94082,11.150989 l 0.12331,10.03754 h -3.33927 -3.33927 l -0.13921,-8.01092 c -0.16697,-9.608469 -0.3489,-10.150309 -3.40479,-10.140409 -3.49005,0.0113 -3.64212,0.43848 -3.64212,10.230869 v 7.92046 h -3.55253 -3.55252 v -8.20141 c 0,-9.681969 -0.0856,-9.955959 -3.11139,-9.955959 -1.45732,0 -2.07626,0.20632 -2.74069,0.91357 -0.82409,0.87721 -0.85826,1.23864 -0.85826,9.078689 v 8.16511 h -3.55253 -3.55253 z m 37.1042,0 V 34.73585 h 3.35517 c 3.09201,0 3.35516,0.0619 3.35516,0.78945 0,0.99499 0.15857,0.98768 1.59378,-0.0734 0.79311,-0.58637 1.92202,-0.91747 3.52303,-1.03328 3.25423,-0.23539 4.93802,0.15871 6.48631,1.51813 l 1.32338,1.16194 1.01347,-0.79719 c 1.78461,-1.40377 3.6903,-1.96036 6.71207,-1.96036 2.37322,0 3.16393,0.16647 4.25598,0.896 2.55743,1.70847 2.72147,2.50485 2.72215,13.215439 l 6.2e-4,9.57209 h -3.32009 -3.32008 l -0.13377,-8.01154 C 167.37519,40.36319 167.20561,39.8673 164.06692,39.8673 c -1.62121,0 -2.06885,0.16905 -2.75398,1.04004 -0.76682,0.97486 -0.8181,1.5439 -0.8181,9.078689 v 8.03864 h -3.33301 -3.33301 l -0.12083,-8.32482 c -0.1191,-8.204739 -0.13428,-8.335689 -1.0527,-9.078689 -1.35958,-1.09988 -4.01202,-1.01711 -5.11758,0.15971 -0.82409,0.8772 -0.85826,1.23863 -0.85826,9.078689 v 8.16511 h -3.35516 -3.35517 z m 62.36663,0 V 34.73585 h 3.55252 c 3.27249,0 3.55253,0.0614 3.55253,0.77835 0,0.74634 0.0755,0.73822 1.83506,-0.19737 1.45604,-0.77418 2.41398,-0.97558 4.63802,-0.97509 3.64802,7.9e-4 5.26773,0.78934 6.45418,3.14215 0.84678,1.67921 0.88814,2.19844 0.88814,11.150989 v 9.38977 h -3.53117 -3.53116 l -0.12005,-8.69892 c -0.1348,-9.768339 -0.0274,-9.442089 -3.11036,-9.452409 -1.38254,-0.005 -2.00743,0.20823 -2.6644,0.90753 -0.82409,0.87721 -0.85826,1.23864 -0.85826,9.078689 v 8.16511 h -3.55253 -3.55252 z M 60.826663,30.6357 c -4.85555,-2.29936 -7.33509,-7.9714 -6.10144,-13.95729 0.8258,-4.00696 2.84133,-6.73369 6.09857,-8.2505 2.46718,-1.14891 7.32023,-1.27861 10.26745,-0.27439 1.95433,0.66591 5.50916,3.73408 5.2449,4.52687 -0.0752,0.22558 -1.19406,0.98185 -2.48637,1.68061 l -2.34965,1.27047 -1.42704,-1.50013 c -1.29756,-1.36402 -1.61441,-1.50012 -3.49215,-1.50012 -1.74049,0 -2.24063,0.17551 -3.18171,1.1166 -2.73132,2.73132 -2.59421,9.01664 0.25119,11.51493 1.12255,0.98561 1.68677,1.18386 3.36935,1.18386 1.84646,0 2.15154,-0.13722 3.53239,-1.5888 l 1.51138,-1.58879 1.9521,0.9892 c 1.07365,0.54406 2.07287,1.18462 2.22048,1.42347 0.47755,0.77268 -1.99984,3.2965 -4.52861,4.61349 -2.19466,1.14299 -2.8145,1.28243 -5.68522,1.279 -2.56451,-0.003 -3.62474,-0.19458 -5.19562,-0.93848 z m 37.41136,0.16849 c -2.19498,-0.99642 -4.31231,-3.15906 -5.34495,-5.45929 -0.96211,-2.14312 -1.14232,-7.40656 -0.34958,-10.21007 0.80119,-2.83338 2.77479,-5.3226 5.19,-6.54593 1.85882,-0.94151 2.667037,-1.10422 5.620747,-1.13156 4.13269,-0.0383 6.24099,0.79426 8.40047,3.31712 1.57908,1.8448 2.95198,5.75671 2.95198,8.4113 v 1.73469 h -8.11848 c -7.546897,0 -8.104017,0.0486 -7.913247,0.69077 0.11287,0.37992 0.31684,1.15978 0.45326,1.73301 0.37525,1.57673 2.232377,3.13456 4.023137,3.37475 1.90851,0.25598 3.46091,-0.47772 5.19883,-2.4571 l 1.26047,-1.43559 2.52809,1.31075 2.5281,1.31076 -0.73305,1.19017 c -0.97894,1.5894 -4.079,3.9419 -5.9223,4.49417 -2.44074,0.73126 -7.83924,0.55012 -9.773477,-0.32795 z m 9.589667,-15.31122 c -0.13983,-0.59702 -0.78358,-1.57396 -1.43055,-2.17099 -2.33033,-2.1504 -6.33919,-1.02903 -7.421597,2.07599 l -0.41153,1.1805 h 4.758957 4.75897 z m 11.36758,15.10072 c -3.92612,-2.35345 -4.03307,-8.85665 -0.18887,-11.48402 1.82129,-1.24478 5.66602,-2.43833 8.93255,-2.773 l 2.55676,-0.26195 v -1.69937 c 0,-2.08584 -0.9823,-2.92831 -3.41435,-2.92831 -1.32295,0 -1.82581,0.21107 -2.47789,1.04004 -0.44995,0.57203 -0.8181,1.28254 -0.8181,1.57891 0,0.41306 -0.78325,0.53885 -3.35516,0.53885 -3.05439,0 -3.35517,-0.0685 -3.35517,-0.76375 0,-2.1897 1.68006,-4.45779 4.14462,-5.59526 1.85576,-0.85649 8.56973,-1.03466 11.46993,-0.30438 2.07754,0.52313 3.97974,2.46554 4.29452,4.38528 0.11644,0.71022 0.25843,5.24362 0.31551,10.07424 l 0.10378,8.78295 -3.05912,-3.1e-4 c -2.76486,-2.7e-4 -3.05912,-0.074 -3.05912,-0.76645 0,-0.91673 -0.62464,-1.39877 -1.00824,-0.77809 -0.65334,1.05713 -3.56646,1.92169 -6.49155,1.92656 -2.4531,0.004 -3.23971,-0.16247 -4.5901,-0.97194 z m 8.945,-4.35113 c 1.46583,-0.75801 2.35544,-2.46251 2.35544,-4.51306 0,-1.88689 -0.0858,-1.90454 -3.807,-0.78275 -3.9992,1.20562 -5.10003,2.94432 -3.11864,4.92571 1.12599,1.12599 2.84005,1.2648 4.5702,0.3701 z m 16.39152,4.11883 c -0.77733,-0.6825 -1.56223,-1.85226 -1.7878,-2.6644 -0.22117,-0.79626 -0.40311,-4.61423 -0.40432,-8.48437 l -0.002,-7.03662 -1.48022,0.12893 -1.48022,0.12892 -0.11931,-2.07231 -0.11931,-2.0723 h 1.59953 1.59953 V 4.93407 1.5789 h 3.33921 3.3392 l 0.11464,3.25649 0.11465,3.25648 2.07231,0.11931 2.07231,0.11931 v 1.93237 1.93237 l -2.07231,0.11931 -2.07231,0.11931 v 6.44675 c 0,5.92622 0.0619,6.49193 0.76621,7.00638 0.42142,0.30779 1.35396,0.55963 2.07231,0.55963 h 1.3061 v 2.56571 2.56572 h -3.73616 c -3.61059,0 -3.78273,-0.0409 -5.12184,-1.21665 z m 48.10737,0.47045 c -2.31721,-1.05247 -4.29721,-2.93569 -5.34174,-5.08064 -0.75002,-1.54018 -0.91408,-2.53221 -0.92942,-5.6202 -0.0243,-4.88815 0.80908,-7.38117 3.2947,-9.85602 2.19767,-2.18817 4.22283,-2.87586 8.28892,-2.81474 6.49823,0.0977 10.20305,3.85569 10.96228,11.11967 l 0.24464,2.34054 h -8.19089 -8.1909 l 0.25375,1.08549 c 0.51778,2.21501 1.14199,3.26996 2.3919,4.04245 2.40882,1.48873 5.05979,0.82999 7.2235,-1.79498 l 1.17066,-1.42021 2.4174,1.2203 c 1.32957,0.67116 2.41739,1.37141 2.41739,1.55611 0,0.42032 -1.50884,2.37894 -2.56231,3.32612 -0.43607,0.39207 -1.68099,1.14525 -2.76648,1.67373 -2.57611,1.25418 -8.15597,1.37034 -10.6834,0.22238 z m 9.27767,-15.5219 c -0.51484,-1.79514 -1.57954,-2.70423 -3.46296,-2.95685 -2.69076,-0.36091 -4.56272,0.80377 -5.36388,3.33725 -0.28058,0.88728 -0.27632,0.88813 4.4549,0.88813 h 4.73575 z m -123.612077,4.22874 -0.11017,-11.64462 3.45385,2.2e-4 c 3.40363,2.3e-4 3.45385,0.0143 3.45385,0.96888 v 0.96866 l 2.07231,-0.9648 c 1.13976,-0.53064 2.56078,-0.96653 3.1578,-0.96865 l 1.08549,-0.004 v 2.96044 c 0,1.62824 -0.0646,2.96044 -0.14348,2.96044 -1.37848,0 -4.57166,1.0024 -5.26345,1.65231 -0.886,0.83236 -0.90867,1.03902 -0.90867,8.28463 v 7.43098 h -3.34368 -3.34368 z m 77.453387,2.3e-4 V 7.89451 h 3.55253 3.55253 v 11.6444 11.6444 h -3.55253 -3.55253 z m 16.18374,11.49294 c 0,-0.0833 -1.7692,-5.32328 -3.93155,-11.6444 L 164.07878,7.89451 h 3.7046 3.7046 l 1.88434,7.89451 c 1.03638,4.34198 1.98848,7.89451 2.11578,7.89451 0.1273,0 1.10708,-3.55253 2.1773,-7.89451 l 1.94586,-7.89451 h 3.49518 c 3.12044,0 3.48167,0.0745 3.36906,0.69444 -0.0694,0.38194 -1.80845,5.62192 -3.86461,11.6444 l -3.73848,10.94996 h -3.46526 c -1.9059,0 -3.46527,-0.0682 -3.46527,-0.15146 z M 155.75814,2.56572 V 0 h 3.55253 3.55253 v 2.56572 2.56571 h -3.55253 -3.55253 z"
     id="path56"
     inkscape:connector-curvature="0" />
</svg>
